<mxfile host="app.diagrams.net" modified="2023-08-09T10:34:15.653Z" agent="Mozilla/5.0 (Macintosh; Intel Mac OS X 10_15_7) AppleWebKit/537.36 (KHTML, like Gecko) Chrome/115.0.0.0 Safari/537.36" version="21.6.7" etag="pSmjZZrh-jBGc6B1aH2d" type="github">
  <diagram name="Page-1" id="i09rMQ9OUzs1iNyTzN1Y">
    <mxGraphModel>
      <root>
        <mxCell id="0" />
        <mxCell id="1" parent="0" />
      </root>
    </mxGraphModel>
  </diagram>
</mxfile>
